# xmcd CD Database Entry
#
# Track frame offsets:
# 150
# 14822
# 34267
# 50316
# 66394
# 83470
# 96523
# 110062
# 123314
# 142052
# 157489
#
# Disc length: 2343 seconds
#
# Revision: 1
# Processed by: cddbd v1.5.2PL0 Copyright (c) Steve Scherf et al.
# Submitted via: RSJCDWriter_freedb_lib_OS/2 1.03
#
DISCID=a509250b
DTITLE=Jewel - Sweet And Mild (Acoustic Versions)
DYEAR=1900
DGENRE=country
TTITLE0=No Good In Goodbye
TTITLE1=I Love You Forever
TTITLE2=Fading
TTITLE3=What You Are
TTITLE4=Bad As It Gets
TTITLE5=Summer Home In Your Arms
TTITLE6=Stay Here Forever 
TTITLE7=No More Heartaches
TTITLE8=One True Thing
TTITLE9=Ten
TTITLE10=Satisfied
EXTD=2010
EXTT0=
EXTT1=
EXTT2=
EXTT3=
EXTT4=
EXTT5=
EXTT6=
EXTT7=
EXTT8=
EXTT9=
EXTT10=
PLAYORDER=
